<?xml version="1.0" standalone="no"?>
<!DOCTYPE svg PUBLIC "-//W3C//DTD SVG 20010904//EN"
 "http://www.w3.org/TR/2001/REC-SVG-20010904/DTD/svg10.dtd">
<svg version="1.0" xmlns="http://www.w3.org/2000/svg"
 width="177.000000pt" height="177.000000pt" viewBox="0 0 177.000000 177.000000"
 preserveAspectRatio="xMidYMid meet">
<metadata>
Created by potrace 1.14, written by Peter Selinger 2001-2017
</metadata>
<g transform="translate(0.000000,177.000000) scale(0.100000,-0.100000)"
fill="#000000" stroke="none">
<path d="M895 1300 c-3 -5 -13 -10 -21 -10 -8 0 -34 -9 -56 -20 -23 -11 -59
-20 -80 -20 -40 0 -61 -10 -138 -68 -76 -56 -130 -111 -124 -126 7 -19 69 -42
164 -60 14 -2 61 -12 105 -20 44 -8 94 -18 110 -21 31 -5 53 -9 144 -25 83
-15 80 -18 65 58 -7 37 -15 85 -18 107 -11 78 -48 175 -74 195 -26 21 -67 26
-77 10z"/>
<path d="M1662 868 c-7 -7 -12 -21 -12 -33 0 -12 5 -26 12 -33 7 -7 21 -12 33
-12 12 0 26 5 33 12 7 7 12 21 12 33 0 12 -5 26 -12 33 -7 7 -21 12 -33 12
-12 0 -26 -5 -33 -12z m59 -19 c9 -17 8 -25 -4 -37 -29 -28 -73 12 -47 43 17
21 37 19 51 -6z"/>
<path d="M1683 842 c0 -10 6 -19 12 -19 6 0 12 9 12 19 1 10 -4 18 -12 18 -8
0 -13 -8 -12 -18z"/>
<path d="M929 858 c-1 -1 -2 -54 -4 -116 -2 -99 0 -113 14 -110 14 3 16 20 16
112 0 79 -4 111 -12 113 -7 3 -13 3 -14 1z"/>
<path d="M1379 828 c-1 -7 -1 -16 0 -20 0 -5 -4 -8 -10 -8 -7 0 -9 -8 -4 -22
3 -13 8 -47 9 -77 2 -56 21 -82 54 -76 9 2 20 4 25 4 4 1 7 8 7 16 0 8 -6 12
-14 9 -31 -12 -46 31 -37 109 1 5 9 7 19 6 32 -3 41 1 36 15 -3 8 -15 11 -30
8 -23 -4 -30 8 -25 41 0 4 -6 7 -14 7 -8 0 -16 -6 -16 -12z"/>
<path d="M226 769 c-15 -17 -26 -43 -26 -59 0 -36 36 -78 73 -84 37 -6 77 9
77 30 0 12 -5 14 -17 9 -31 -13 -76 -8 -90 10 -18 26 -9 33 44 31 58 -2 72 6
65 39 -11 59 -85 73 -126 24z m84 -3 c0 -2 3 -11 6 -20 5 -13 -2 -16 -40 -16
-44 0 -46 1 -36 20 7 13 21 20 40 20 17 0 30 -2 30 -4z"/>
<path d="M422 788 c-13 -7 -27 -27 -34 -50 -10 -34 -9 -45 6 -73 20 -36 50
-47 95 -36 14 4 27 15 29 24 3 14 -1 16 -20 9 -13 -5 -29 -7 -35 -6 -7 1 -18
2 -23 3 -16 2 -31 50 -24 77 7 29 39 39 77 25 22 -8 27 -8 27 4 0 30 -55 43
-98 23z"/>
<path d="M584 788 c-43 -20 -55 -81 -27 -129 48 -81 157 -21 139 75 -10 54
-62 79 -112 54z m74 -50 c17 -36 6 -77 -24 -84 -29 -7 -43 1 -55 34 -7 18 -6
34 2 54 16 38 58 36 77 -4z"/>
<path d="M737 793 c-2 -5 -3 -55 -3 -113 1 -86 4 -105 16 -105 9 0 15 10 15
25 0 19 5 24 20 23 31 -4 71 16 84 41 16 29 17 76 2 104 -14 26 -57 39 -81 25
-10 -7 -22 -7 -32 -2 -9 5 -18 6 -21 2z m101 -35 c17 -17 15 -74 -4 -92 -18
-19 -16 -18 -46 -7 -19 7 -23 16 -22 51 0 42 14 60 45 60 8 0 20 -5 27 -12z"/>
<path d="M1017 785 c-9 -9 -17 -18 -17 -19 0 -2 20 -1 44 1 27 4 46 1 51 -7
10 -15 3 -21 -37 -27 -64 -10 -87 -54 -47 -94 15 -15 28 -19 47 -14 15 3 39 6
53 6 25 -1 26 0 23 70 -1 39 -6 75 -12 81 -19 19 -87 21 -105 3z m90 -91 c6
-18 -26 -44 -52 -44 -29 0 -39 25 -18 45 17 18 64 17 70 -1z"/>
<path d="M1195 792 c-6 -4 -10 -42 -11 -85 -1 -66 2 -77 15 -75 12 3 16 16 16
61 0 60 11 77 48 77 23 0 30 -21 30 -87 0 -45 3 -53 19 -53 16 0 17 8 15 71
-3 56 -8 75 -22 85 -22 16 -44 18 -65 4 -8 -5 -19 -5 -25 0 -6 5 -15 6 -20 2z"/>
<path d="M1506 784 c-22 -22 -21 -22 28 -17 27 4 46 1 51 -7 10 -15 3 -21 -37
-27 -64 -10 -87 -54 -47 -94 15 -15 28 -19 47 -14 15 3 39 6 53 5 27 0 27 0
24 71 -2 57 -6 75 -20 86 -25 18 -80 17 -99 -3z m86 -80 c3 -3 4 -14 1 -25 -7
-27 -50 -36 -71 -15 -16 16 -16 18 2 32 20 14 58 19 68 8z"/>
<path d="M8 555 c-6 -6 0 -66 7 -73 3 -3 5 4 5 15 0 14 6 20 17 19 12 0 19 7
21 22 3 17 -1 22 -21 22 -13 0 -26 -2 -29 -5z m40 -16 c-2 -6 -8 -10 -13 -10
-5 0 -11 4 -13 10 -2 6 4 11 13 11 9 0 15 -5 13 -11z"/>
<path d="M540 551 c0 -5 -9 -11 -20 -14 -19 -5 -30 -46 -12 -48 4 0 15 -2 25
-4 14 -3 17 4 17 36 0 21 -2 39 -5 39 -3 0 -5 -4 -5 -9z m0 -35 c0 -8 -4 -17
-9 -21 -12 -7 -24 12 -16 25 9 15 25 12 25 -4z"/>
<path d="M665 528 c7 -38 15 -50 15 -22 0 17 2 17 19 -5 l18 -23 -1 38 c-2 35
-5 39 -29 42 -26 3 -27 2 -22 -30z m40 12 c3 -5 -1 -10 -9 -10 -8 0 -18 5 -21
10 -3 6 1 10 9 10 8 0 18 -4 21 -10z"/>
<path d="M915 548 c-2 -7 -3 -20 -2 -28 1 -8 -2 -16 -8 -17 -5 -1 -10 7 -9 17
1 23 -11 27 -19 6 -8 -21 16 -48 36 -40 11 4 17 17 17 40 0 34 -7 44 -15 22z"/>
<path d="M1170 521 c0 -23 4 -40 8 -37 9 5 7 64 -2 73 -3 4 -6 -13 -6 -36z"/>
<path d="M1300 552 c0 -7 -6 -12 -14 -12 -20 0 -27 -25 -13 -45 19 -25 45 -9
42 26 -3 29 -15 54 -15 31z m3 -28 c9 -9 -4 -35 -14 -28 -5 3 -9 12 -9 20 0
14 12 19 23 8z"/>
<path d="M1469 549 c-2 -25 3 -54 10 -62 4 -4 7 8 7 27 -2 35 -15 63 -17 35z"/>
<path d="M1643 520 c0 -25 2 -35 4 -22 2 12 2 32 0 45 -2 12 -4 2 -4 -23z"/>
<path d="M796 543 c-12 -12 -6 -33 9 -33 8 0 15 -5 15 -11 0 -6 -7 -8 -17 -4
-14 5 -15 4 -6 -6 17 -17 43 5 36 31 -5 20 -27 33 -37 23z m19 -13 c3 -5 1
-10 -4 -10 -6 0 -11 5 -11 10 0 6 2 10 4 10 3 0 8 -4 11 -10z"/>
<path d="M1590 540 c-12 -8 -11 -10 5 -10 18 -1 18 -2 -2 -10 -15 -6 -21 -15
-17 -25 4 -9 13 -14 21 -11 8 3 19 6 23 6 10 0 4 40 -7 51 -5 5 -15 4 -23 -1z
m20 -34 c0 -3 -4 -8 -10 -11 -5 -3 -10 -1 -10 4 0 6 5 11 10 11 6 0 10 -2 10
-4z"/>
<path d="M78 515 c-3 -14 -2 -25 2 -25 4 0 10 11 12 25 3 14 2 25 -2 25 -4 0
-10 -11 -12 -25z"/>
<path d="M116 532 c-8 -8 -7 -25 2 -40 11 -16 42 -5 42 15 0 11 6 8 19 -8 17
-20 22 -22 33 -10 11 12 10 13 -4 8 -10 -3 -19 0 -22 9 -9 24 -8 26 15 19 13
-4 19 -3 16 2 -7 11 -92 15 -101 5z m34 -16 c0 -8 -4 -17 -9 -20 -10 -7 -23
19 -14 28 11 11 23 6 23 -8z"/>
<path d="M233 524 c-3 -8 2 -23 11 -32 13 -14 18 -14 28 -3 11 11 10 13 -4 8
-10 -3 -20 -2 -23 3 -4 6 3 10 14 10 12 0 21 7 21 15 0 20 -39 19 -47 -1z"/>
<path d="M290 525 c0 -8 9 -15 21 -15 11 0 18 -4 14 -10 -3 -5 -13 -6 -23 -3
-13 4 -14 3 -6 -6 12 -13 44 -5 44 11 0 5 -10 12 -22 16 -21 5 -21 6 -2 13 18
7 17 8 -3 8 -14 1 -23 -5 -23 -14z"/>
<path d="M353 524 c-7 -19 20 -49 36 -40 6 4 11 18 11 32 0 17 -5 24 -20 24
-11 0 -23 -7 -27 -16z m37 -9 c0 -8 -7 -15 -15 -15 -16 0 -20 12 -8 23 11 12
23 8 23 -8z"/>
<path d="M410 525 c0 -8 7 -15 15 -15 8 0 15 -4 15 -10 0 -5 -8 -7 -17 -3 -14
4 -15 3 -7 -6 14 -15 44 -3 37 15 -3 8 -13 14 -22 15 -12 0 -12 2 4 9 19 8 19
9 -2 9 -14 1 -23 -5 -23 -14z"/>
<path d="M577 533 c-4 -3 -7 -14 -7 -24 0 -21 30 -34 44 -18 8 9 7 10 -6 6
-10 -3 -20 -2 -23 3 -4 6 3 10 14 10 12 0 21 7 21 15 0 15 -31 21 -43 8z m30
-9 c-3 -3 -12 -4 -19 -1 -8 3 -5 6 6 6 11 1 17 -2 13 -5z"/>
<path d="M730 516 c0 -27 20 -39 41 -24 11 8 11 9 -3 4 -10 -3 -20 -1 -23 4
-4 6 3 10 14 10 12 0 21 7 21 15 0 9 -9 15 -25 15 -20 0 -25 -5 -25 -24z m37
8 c-3 -3 -12 -4 -19 -1 -8 3 -5 6 6 6 11 1 17 -2 13 -5z"/>
<path d="M852 510 c0 -19 2 -27 5 -17 2 9 2 25 0 35 -3 9 -5 1 -5 -18z"/>
<path d="M950 517 c0 -30 11 -40 34 -31 10 4 16 17 15 33 -1 25 -1 25 -7 3 -7
-24 -25 -27 -29 -4 -3 26 -13 25 -13 -1z"/>
<path d="M1020 516 c0 -29 12 -39 34 -30 9 3 15 16 14 30 -3 35 -48 34 -48 0z
m33 0 c6 -16 -2 -28 -14 -20 -12 7 -11 34 0 34 5 0 11 -6 14 -14z"/>
<path d="M1080 525 c0 -8 7 -15 16 -15 8 0 12 -5 9 -10 -4 -6 -12 -7 -18 -4
-9 5 -9 4 0 -6 6 -7 16 -9 22 -6 17 11 13 36 -6 37 -15 0 -15 2 2 9 19 8 19 9
-2 9 -14 1 -23 -5 -23 -14z"/>
<path d="M1201 508 c2 -31 2 -32 6 -5 4 23 8 27 25 21 14 -4 18 -2 14 5 -4 6
-16 11 -27 11 -15 0 -19 -6 -18 -32z"/>
<path d="M1344 510 c1 -37 40 -35 43 3 1 15 -2 27 -7 27 -5 0 -7 -9 -5 -19 2
-11 -3 -22 -10 -25 -9 -3 -15 3 -18 17 -3 18 -4 18 -3 -3z"/>
<path d="M1406 531 c-3 -5 5 -16 19 -25 22 -14 25 -15 25 -1 0 8 -8 15 -17 16
-15 0 -15 2 2 9 19 8 19 9 -2 9 -12 1 -24 -3 -27 -8z"/>
<path d="M1507 521 c-2 -10 -1 -25 4 -32 6 -10 9 -6 9 14 0 18 5 27 16 27 11
0 15 -6 11 -20 -3 -11 -1 -23 4 -26 5 -3 9 9 9 25 0 26 -4 31 -24 31 -15 0
-26 -7 -29 -19z"/>
<path d="M1667 526 c-3 -8 1 -22 10 -33 12 -15 14 -15 10 -2 -4 12 1 18 17 21
26 5 46 0 46 -13 0 -4 -8 -6 -17 -2 -14 4 -15 3 -7 -6 12 -13 44 -5 44 11 0 5
-10 12 -22 16 -21 5 -21 6 -2 13 18 7 18 8 -3 8 -12 1 -24 -5 -26 -11 -4 -10
-6 -10 -6 0 -1 17 -38 15 -44 -2z"/>
<path d="M1230 499 c0 -5 5 -7 10 -4 6 3 10 8 10 11 0 2 -4 4 -10 4 -5 0 -10
-5 -10 -11z"/>
<path d="M1405 490 c3 -5 11 -10 16 -10 6 0 7 5 4 10 -3 6 -11 10 -16 10 -6 0
-7 -4 -4 -10z"/>
</g>
</svg>
